#Comment line ignore any data following # character 
#Hierarchical Translation and Rotation (.htr) file 
[Header]	
#Header keywords are followed by a single value 
FileType HTR		#Single word string
DataType HTRS		#Translation followed by rotation and scale data
FileVersion 1		#integer
NumSegments 84		#integer
NumFrames 2		#integer
DataFrameRate 30		#integer, data frame rate in this file
EulerRotationOrder ZYX
CalibrationUnits mm
RotationUnits Degrees
GlobalAxisofGravity Y
BoneLengthAxis Y
ScaleFactor 1.00
[SegmentNames&Hierarchy]
#CHILD	PARENT
MASTER GLOBAL
root MASTER
chest root
L_mid_tent01 root
R_mid_tent01 root
spine01 root
Bip01_Neck chest
L_humerus chest
R_humerus chest
weapon_bone chest
Bip01_Head Bip01_Neck
eye_left_bone Bip01_Head
eye_right_bone Bip01_Head
L_forearm L_humerus
L_front_hand L_forearm
L_weapon_bone L_forearm
L_front_hand01_01 L_front_hand
L_front_hand02_01 L_front_hand
L_front_hand03_01 L_front_hand
L_front_hand01_02 L_front_hand01_01
L_front_hand02_02 L_front_hand02_01
L_front_hand03_02 L_front_hand03_01
R_forearm R_humerus
R_front_hand R_forearm
R_weapon_bone R_forearm
R_front_hand01_01 R_front_hand
R_front_hand02_01 R_front_hand
R_front_hand03_01 R_front_hand
R_front_hand01_02 R_front_hand01_01
R_front_hand02_02 R_front_hand02_01
R_front_hand03_02 R_front_hand03_01
null_rope01_connect L_mid_tent01
Rope1_Seg01 null_rope01_connect
Rope1_Seg02 Rope1_Seg01
Rope1_Seg03 Rope1_Seg02
Rope1_Seg04 Rope1_Seg03
Rope1_Seg05 Rope1_Seg04
Rope1_Seg06 Rope1_Seg05
Rope1_Seg07 Rope1_Seg06
Rope1_Seg09 Rope1_Seg07
L_mid_hand01 Rope1_Seg09
L_mid_hand02 Rope1_Seg09
L_mid_hand03 Rope1_Seg09
null_rope02_connect R_mid_tent01
Rope2_Seg01 null_rope02_connect
Rope2_Seg02 Rope2_Seg01
Rope2_Seg03 Rope2_Seg02
Rope2_Seg04 Rope2_Seg03
Rope2_Seg05 Rope2_Seg04
Rope2_Seg06 Rope2_Seg05
Rope2_Seg07 Rope2_Seg06
Rope2_Seg09 Rope2_Seg07
R_mid_hand01 Rope2_Seg09
R_mid_hand02 Rope2_Seg09
R_mid_hand03 Rope2_Seg09
spine02 spine01
spine03 spine02
pelvis spine03
null_rope03_connect pelvis
null_rope04_connect pelvis
Rope3_Seg01 null_rope03_connect
Rope3_Seg02 Rope3_Seg01
Rope3_Seg03 Rope3_Seg02
Rope3_Seg04 Rope3_Seg03
Rope3_Seg05 Rope3_Seg04
Rope3_Seg06 Rope3_Seg05
Rope3_Seg07 Rope3_Seg06
Rope3_Seg08 Rope3_Seg07
Rope3_Seg09 Rope3_Seg08
R_rear_hand01 Rope3_Seg09
R_rear_hand02 Rope3_Seg09
R_rear_hand03 Rope3_Seg09
Rope4_Seg01 null_rope04_connect
Rope4_Seg02 Rope4_Seg01
Rope4_Seg03 Rope4_Seg02
Rope4_Seg04 Rope4_Seg03
Rope4_Seg05 Rope4_Seg04
Rope4_Seg06 Rope4_Seg05
Rope4_Seg07 Rope4_Seg06
Rope4_Seg08 Rope4_Seg07
Rope4_Seg09 Rope4_Seg08
L_rear_hand01 Rope4_Seg09
L_rear_hand02 Rope4_Seg09
L_rear_hand03 Rope4_Seg09
[BasePosition]
#SegmentName Tx, Ty, Tz, Rx, Ry, Rz, BoneLength
MASTER 0.000000 0.000000 0.000000 -90.000000 0.000000 0.000000 10.000000 
root 0.000000 0.000000 0.000000 0.000000 0.000000 0.000000 10.000000 
chest 0.000000 0.000000 0.000000 0.000000 0.000000 0.000000 10.000000 
L_mid_tent01 0.000000 0.000000 0.000000 0.000000 0.000000 0.000000 10.000000 
R_mid_tent01 0.000000 0.000000 0.000000 0.000000 0.000000 0.000000 10.000000 
spine01 0.000000 0.000000 0.000000 0.000000 0.000000 0.000000 10.000000 
Bip01_Neck 0.000000 0.000000 0.000000 0.000000 0.000000 0.000000 10.000000 
L_humerus 0.000000 0.000000 0.000000 0.000000 0.000000 0.000000 10.000000 
R_humerus 0.000000 0.000000 0.000000 0.000000 0.000000 0.000000 10.000000 
weapon_bone 0.000000 0.000000 0.000000 0.000000 0.000000 0.000000 10.000000 
Bip01_Head 0.000000 0.000000 0.000000 0.000000 0.000000 0.000000 10.000000 
eye_left_bone 0.000000 0.000000 0.000000 0.000000 0.000000 0.000000 10.000000 
eye_right_bone 0.000000 0.000000 0.000000 0.000000 0.000000 0.000000 10.000000 
L_forearm 0.000000 0.000000 0.000000 0.000000 0.000000 0.000000 10.000000 
L_front_hand 0.000000 0.000000 0.000000 0.000000 0.000000 0.000000 10.000000 
L_weapon_bone 0.000000 0.000000 0.000000 0.000000 0.000000 0.000000 10.000000 
L_front_hand01_01 0.000000 0.000000 0.000000 0.000000 0.000000 0.000000 10.000000 
L_front_hand02_01 0.000000 0.000000 0.000000 0.000000 0.000000 0.000000 10.000000 
L_front_hand03_01 0.000000 0.000000 0.000000 0.000000 0.000000 0.000000 10.000000 
L_front_hand01_02 0.000000 0.000000 0.000000 0.000000 0.000000 0.000000 10.000000 
L_front_hand02_02 0.000000 0.000000 0.000000 0.000000 0.000000 0.000000 10.000000 
L_front_hand03_02 0.000000 0.000000 0.000000 0.000000 0.000000 0.000000 10.000000 
R_forearm 0.000000 0.000000 0.000000 0.000000 0.000000 0.000000 10.000000 
R_front_hand 0.000000 0.000000 0.000000 0.000000 0.000000 0.000000 10.000000 
R_weapon_bone 0.000000 0.000000 0.000000 0.000000 0.000000 0.000000 10.000000 
R_front_hand01_01 0.000000 0.000000 0.000000 0.000000 0.000000 0.000000 10.000000 
R_front_hand02_01 0.000000 0.000000 0.000000 0.000000 0.000000 0.000000 10.000000 
R_front_hand03_01 0.000000 0.000000 0.000000 0.000000 0.000000 0.000000 10.000000 
R_front_hand01_02 0.000000 0.000000 0.000000 0.000000 0.000000 0.000000 10.000000 
R_front_hand02_02 0.000000 0.000000 0.000000 0.000000 0.000000 0.000000 10.000000 
R_front_hand03_02 0.000000 0.000000 0.000000 0.000000 0.000000 0.000000 10.000000 
null_rope01_connect 0.000000 0.000000 0.000000 0.000000 0.000000 0.000000 10.000000 
Rope1_Seg01 0.000000 0.000000 0.000000 0.000000 0.000000 0.000000 10.000000 
Rope1_Seg02 0.000000 0.000000 0.000000 0.000000 0.000000 0.000000 10.000000 
Rope1_Seg03 0.000000 0.000000 0.000000 0.000000 0.000000 0.000000 10.000000 
Rope1_Seg04 0.000000 0.000000 0.000000 0.000000 0.000000 0.000000 10.000000 
Rope1_Seg05 0.000000 0.000000 0.000000 0.000000 0.000000 0.000000 10.000000 
Rope1_Seg06 0.000000 0.000000 0.000000 0.000000 0.000000 0.000000 10.000000 
Rope1_Seg07 0.000000 0.000000 0.000000 0.000000 0.000000 0.000000 10.000000 
Rope1_Seg09 0.000000 0.000000 0.000000 0.000000 0.000000 0.000000 10.000000 
L_mid_hand01 0.000000 0.000000 0.000000 0.000000 0.000000 0.000000 10.000000 
L_mid_hand02 0.000000 0.000000 0.000000 0.000000 0.000000 0.000000 10.000000 
L_mid_hand03 0.000000 0.000000 0.000000 0.000000 0.000000 0.000000 10.000000 
null_rope02_connect 0.000000 0.000000 0.000000 0.000000 0.000000 0.000000 10.000000 
Rope2_Seg01 0.000000 0.000000 0.000000 0.000000 0.000000 0.000000 10.000000 
Rope2_Seg02 0.000000 0.000000 0.000000 0.000000 0.000000 0.000000 10.000000 
Rope2_Seg03 0.000000 0.000000 0.000000 0.000000 0.000000 0.000000 10.000000 
Rope2_Seg04 0.000000 0.000000 0.000000 0.000000 0.000000 0.000000 10.000000 
Rope2_Seg05 0.000000 0.000000 0.000000 0.000000 0.000000 0.000000 10.000000 
Rope2_Seg06 0.000000 0.000000 0.000000 0.000000 0.000000 0.000000 10.000000 
Rope2_Seg07 0.000000 0.000000 0.000000 0.000000 0.000000 0.000000 10.000000 
Rope2_Seg09 0.000000 0.000000 0.000000 0.000000 0.000000 0.000000 10.000000 
R_mid_hand01 0.000000 0.000000 0.000000 0.000000 0.000000 0.000000 10.000000 
R_mid_hand02 0.000000 0.000000 0.000000 0.000000 0.000000 0.000000 10.000000 
R_mid_hand03 0.000000 0.000000 0.000000 0.000000 0.000000 0.000000 10.000000 
spine02 0.000000 0.000000 0.000000 0.000000 0.000000 0.000000 10.000000 
spine03 0.000000 0.000000 0.000000 0.000000 0.000000 0.000000 10.000000 
pelvis 0.000000 0.000000 0.000000 0.000000 0.000000 0.000000 10.000000 
null_rope03_connect 0.000000 0.000000 0.000000 0.000000 0.000000 0.000000 10.000000 
null_rope04_connect 0.000000 0.000000 0.000000 0.000000 0.000000 0.000000 10.000000 
Rope3_Seg01 0.000000 0.000000 0.000000 0.000000 0.000000 0.000000 10.000000 
Rope3_Seg02 0.000000 0.000000 0.000000 0.000000 0.000000 0.000000 10.000000 
Rope3_Seg03 0.000000 0.000000 0.000000 0.000000 0.000000 0.000000 10.000000 
Rope3_Seg04 0.000000 0.000000 0.000000 0.000000 0.000000 0.000000 10.000000 
Rope3_Seg05 0.000000 0.000000 0.000000 0.000000 0.000000 0.000000 10.000000 
Rope3_Seg06 0.000000 0.000000 0.000000 0.000000 0.000000 0.000000 10.000000 
Rope3_Seg07 0.000000 0.000000 0.000000 0.000000 0.000000 0.000000 10.000000 
Rope3_Seg08 0.000000 0.000000 0.000000 0.000000 0.000000 0.000000 10.000000 
Rope3_Seg09 0.000000 0.000000 0.000000 0.000000 0.000000 0.000000 10.000000 
R_rear_hand01 0.000000 0.000000 0.000000 0.000000 0.000000 0.000000 10.000000 
R_rear_hand02 0.000000 0.000000 0.000000 0.000000 0.000000 0.000000 10.000000 
R_rear_hand03 0.000000 0.000000 0.000000 0.000000 0.000000 0.000000 10.000000 
Rope4_Seg01 0.000000 0.000000 0.000000 0.000000 0.000000 0.000000 10.000000 
Rope4_Seg02 0.000000 0.000000 0.000000 0.000000 0.000000 0.000000 10.000000 
Rope4_Seg03 0.000000 0.000000 0.000000 0.000000 0.000000 0.000000 10.000000 
Rope4_Seg04 0.000000 0.000000 0.000000 0.000000 0.000000 0.000000 10.000000 
Rope4_Seg05 0.000000 0.000000 0.000000 0.000000 0.000000 0.000000 10.000000 
Rope4_Seg06 0.000000 0.000000 0.000000 0.000000 0.000000 0.000000 10.000000 
Rope4_Seg07 0.000000 0.000000 0.000000 0.000000 0.000000 0.000000 10.000000 
Rope4_Seg08 0.000000 0.000000 0.000000 0.000000 0.000000 0.000000 10.000000 
Rope4_Seg09 0.000000 0.000000 0.000000 0.000000 0.000000 0.000000 10.000000 
L_rear_hand01 0.000000 0.000000 0.000000 0.000000 0.000000 0.000000 10.000000 
L_rear_hand02 0.000000 0.000000 0.000000 0.000000 0.000000 0.000000 10.000000 
L_rear_hand03 0.000000 0.000000 0.000000 0.000000 0.000000 0.000000 10.000000 
#Beginning of Data. Separated by tabs
#Fr	Tx	Ty	Tz	Rx	Ry	Rz	SF
[MASTER]
53 229.690186 6039.797852 2130.228027 0.001660 0.001660 0.001660 6408.571289
54 188.519653 6178.775391 2113.528076 0.001660 0.001660 0.001660 6532.978027
[root]
53 668.694763 -117.438965 549.835144 -44.214951 -39.455650 -58.926453 873.649414
54 682.896973 -117.646469 554.344482 -45.466888 -35.387882 -55.841183 887.404541
[chest]
53 -84.512650 -34.090519 0.000000 24.013775 -35.726200 171.901688 91.129311
54 -84.512650 -34.090519 0.000000 21.302588 -29.697985 170.653976 91.129311
[L_mid_tent01]
53 27.299534 22.179451 -249.918686 -12.748562 15.013523 55.107338 252.381729
54 27.299541 22.179455 -249.918686 -15.950000 12.930897 46.492554 252.381729
[R_mid_tent01]
53 23.228794 24.509907 226.238495 159.744186 -30.842245 42.581902 228.744751
54 23.228794 24.509907 226.238495 160.149139 -23.836668 27.812822 228.744751
[spine01]
53 -0.361383 -0.195265 0.000000 -0.000001 -0.000007 22.052340 0.410763
54 -0.361383 -0.195265 0.000000 -0.000001 -0.000007 22.052340 0.410763
[Bip01_Neck]
53 165.484543 71.581718 0.000119 176.643677 -1.657967 43.431911 180.302734
54 165.484543 71.581718 0.000119 176.643677 -1.657967 43.431911 180.302734
[L_humerus]
53 -13.983130 -135.272980 -120.471481 168.775558 43.009865 -98.191269 181.680161
54 -13.983130 -135.272980 -120.471481 170.062851 32.001034 -96.882172 181.680161
[R_humerus]
53 -13.983309 -135.273102 125.287651 -176.298981 -36.298843 -87.733963 184.909012
54 -13.983309 -135.273102 125.287651 -176.637512 -27.532200 -87.095055 184.909012
[weapon_bone]
53 235.964890 -300.705902 0.000000 0.000000 -89.951546 -128.212341 382.234833
54 235.964890 -300.705902 0.000000 0.000000 -89.951546 -128.212341 382.234833
[Bip01_Head]
53 213.418686 185.786499 10.861490 13.238506 -2.083126 -48.623180 283.164490
54 213.421463 185.778915 10.959698 13.392813 -1.979725 -48.533813 283.165405
[eye_left_bone]
53 -24.626970 125.451866 -64.772606 0.000000 -90.000000 -99.840431 143.318359
54 -24.626970 125.451866 -64.772606 0.000000 -90.000000 -99.840431 143.318359
[eye_right_bone]
53 -24.626970 125.451866 64.327362 0.000000 -89.965736 80.156380 143.117676
54 -24.626970 125.451866 64.327362 0.000000 -89.965736 80.156380 143.117676
[L_forearm]
53 322.776093 0.000000 -0.000119 0.000418 -0.002310 -110.539688 322.776093
54 322.776093 0.000000 -0.000119 0.000417 -0.002310 -110.489861 322.776093
[L_front_hand]
53 241.149185 -0.042021 -3.300071 -178.667953 -1.835447 -27.422350 241.171753
54 241.149185 -0.042021 -3.300071 -178.667953 -1.835447 -27.422350 241.171753
[L_weapon_bone]
53 156.183838 0.000000 0.000000 0.000014 0.000007 0.000001 156.183838
54 156.183838 0.000000 0.000000 0.000014 0.000007 0.000001 156.183838
[L_front_hand01_01]
53 86.095154 20.947098 -0.655860 -0.366594 -0.477154 75.385574 88.609184
54 86.095154 20.947098 -0.655860 -0.366594 -0.477154 75.385574 88.609184
[L_front_hand02_01]
53 86.935165 -11.437475 24.513514 154.399811 -59.883842 -61.369587 91.046425
54 86.935165 -11.437475 24.513514 154.399796 -59.883835 -61.369587 91.046425
[L_front_hand03_01]
53 86.637497 -14.123976 -20.424902 -153.913849 58.118122 -62.702850 90.126129
54 86.637497 -14.123976 -20.424902 -153.913849 58.118122 -62.702866 90.126129
[L_front_hand01_02]
53 71.020905 -0.000179 0.000030 0.000334 -0.002323 -106.379684 71.020905
54 71.020905 -0.000179 0.000030 0.000334 -0.002323 -106.379684 71.020905
[L_front_hand02_02]
53 71.020927 -0.000119 0.000060 0.000334 -0.002323 -106.379684 71.020927
54 71.020927 -0.000119 0.000060 0.000334 -0.002323 -106.379684 71.020927
[L_front_hand03_02]
53 71.020905 -0.000060 0.000060 0.000334 -0.002323 -106.379684 71.020905
54 71.020905 -0.000060 0.000060 0.000334 -0.002323 -106.379684 71.020905
[R_forearm]
53 322.776428 -0.000060 0.000030 0.201454 0.067138 -109.187439 322.776428
54 322.776428 -0.000060 0.000030 0.201483 0.067051 -109.137817 322.776428
[R_front_hand]
53 238.847015 -0.006795 2.210259 -2.635298 -10.645461 -26.312506 238.857239
54 238.847015 -0.006795 2.210259 -2.635298 -10.645461 -26.312506 238.857239
[R_weapon_bone]
53 155.664093 0.002503 -0.000030 0.003487 0.001180 -90.988930 155.664078
54 155.664093 0.002503 -0.000030 0.003487 0.001180 -90.988930 155.664078
[R_front_hand01_01]
53 87.624611 14.231146 22.918642 -154.633499 -59.950619 61.746044 91.683487
54 87.624611 14.231146 22.918642 -154.633499 -59.950619 61.746044 91.683487
[R_front_hand02_01]
53 89.356956 14.367283 -19.491137 154.602661 58.302849 63.744389 92.579636
54 89.356956 14.367283 -19.491137 154.602661 58.302849 63.744389 92.579636
[R_front_hand03_01]
53 87.286232 -22.307278 -0.143439 0.162155 -0.423168 -75.767921 90.091743
54 87.286232 -22.307278 -0.143439 0.162155 -0.423168 -75.767921 90.091743
[R_front_hand01_02]
53 71.020905 0.000060 0.000119 0.002323 -0.000334 106.381714 71.020905
54 71.020905 0.000060 0.000119 0.002323 -0.000334 106.381714 71.020905
[R_front_hand02_02]
53 71.020844 -0.000030 -0.000119 0.002323 -0.000334 106.381714 71.020836
54 71.020844 -0.000030 -0.000119 0.002323 -0.000334 106.381714 71.020836
[R_front_hand03_02]
53 71.020905 0.000000 0.000030 0.002323 -0.000334 106.381714 71.020905
54 71.020905 0.000000 0.000030 0.002323 -0.000334 106.381714 71.020905
[null_rope01_connect]
53 328.732483 0.000000 -0.000238 66.345169 -37.425060 1.562279 328.732483
54 328.732483 0.000000 -0.000238 67.634926 -36.589886 4.708705 328.732483
[Rope1_Seg01]
53 0.000038 -0.000779 0.000153 26.768452 48.678883 -143.054672 0.000795
54 0.000038 -0.000793 0.000153 19.620363 53.221546 -151.528519 0.000809
[Rope1_Seg02]
53 139.999863 -0.000179 0.000000 1.781091 10.358453 1.330246 139.999863
54 139.999863 -0.000179 0.000000 0.638925 7.083670 0.928210 139.999863
[Rope1_Seg03]
53 139.999924 0.000060 -0.000060 0.924694 15.963157 1.524667 139.999924
54 139.999924 0.000060 -0.000060 0.165209 12.384049 1.507075 139.999924
[Rope1_Seg04]
53 139.999924 -0.000060 -0.000119 -1.291091 15.473773 0.734639 139.999924
54 139.999924 -0.000060 -0.000119 -1.804595 18.360670 3.523590 139.999924
[Rope1_Seg05]
53 139.999832 0.000119 -0.000060 -8.837931 32.264881 5.205919 139.999832
54 139.999832 0.000119 -0.000060 -9.736094 31.901758 4.820311 139.999832
[Rope1_Seg06]
53 139.999954 0.000119 -0.000060 -19.600737 37.635357 15.880282 139.999954
54 139.999954 0.000119 -0.000060 -25.087770 41.423508 12.758987 139.999954
[Rope1_Seg07]
53 139.999985 0.000060 0.000000 -7.940654 9.319843 9.149036 139.999985
54 139.999985 0.000060 0.000000 -10.525723 10.481287 10.578642 139.999985
[Rope1_Seg09]
53 121.602913 0.000119 -0.000089 -89.793175 -1.359789 0.847147 121.602913
54 121.602913 0.000119 -0.000089 -89.793175 -1.359789 0.847147 121.602913
[L_mid_hand01]
53 103.859421 1.038730 8.195221 130.544373 -67.584534 -38.866943 104.187431
54 103.859421 1.038730 8.195221 130.544373 -67.584534 -38.866943 104.187431
[L_mid_hand02]
53 105.572853 -4.139662 -10.864139 -168.923172 43.409309 -73.498886 106.211075
54 105.572853 -4.139662 -10.864139 -168.923172 43.409309 -73.498886 106.211075
[L_mid_hand03]
53 104.641464 17.579376 -3.913581 -6.012628 17.808178 74.893669 106.179977
54 104.641464 17.579376 -3.913581 -6.012627 17.808178 74.893677 106.179977
[null_rope02_connect]
53 328.732849 0.000179 -0.000119 -96.307175 -0.124389 -22.011456 328.732849
54 328.732849 0.000179 -0.000119 -97.834572 10.647475 -28.561768 328.732849
[Rope2_Seg01]
53 0.000071 -0.000722 0.000000 60.640976 -12.076246 114.590141 0.000726
54 0.000071 -0.000738 0.000000 68.653145 -7.543329 110.914291 0.000742
[Rope2_Seg02]
53 139.999741 -0.000060 -0.000119 6.340371 -3.591372 -4.043715 139.999756
54 139.999741 -0.000060 -0.000119 3.952662 -3.160911 -2.023438 139.999756
[Rope2_Seg03]
53 140.000107 0.000030 0.000000 9.409465 -6.887402 -6.265427 140.000107
54 140.000107 0.000030 0.000000 5.405202 -5.247892 -2.883351 140.000107
[Rope2_Seg04]
53 139.999802 0.000000 -0.000060 14.799823 -18.690193 -11.430870 139.999802
54 139.999802 0.000000 -0.000060 7.754901 -10.653001 -4.511875 139.999802
[Rope2_Seg05]
53 139.999985 -0.000060 0.000119 10.905194 -33.920883 -12.923457 139.999985
54 139.999985 -0.000060 0.000119 10.129535 -32.666656 -7.324805 139.999985
[Rope2_Seg06]
53 139.999893 -0.000030 -0.000119 0.937563 -7.296416 -11.052258 139.999893
54 139.999893 -0.000030 -0.000119 2.547593 -21.543270 -10.668387 139.999893
[Rope2_Seg07]
53 139.999893 0.000060 -0.000060 0.335031 -5.615659 -9.711791 139.999893
54 139.999893 0.000060 -0.000060 -0.882282 -5.449520 -10.015696 139.999893
[Rope2_Seg09]
53 121.338966 0.000089 -0.000060 33.793236 -1.359788 -0.847141 121.338966
54 121.338966 0.000089 -0.000060 33.793236 -1.359788 -0.847141 121.338966
[R_mid_hand01]
53 104.680779 11.144459 -10.335981 -16.212063 45.237247 70.462852 105.778534
54 104.680779 11.144459 -10.335981 -16.212065 45.237247 70.462852 105.778534
[R_mid_hand02]
53 104.070427 2.443552 8.231699 49.067368 -67.749771 39.286453 104.424065
54 104.070427 2.443552 8.231699 49.067371 -67.749794 39.286472 104.424065
[R_mid_hand03]
53 106.028137 -11.221827 -5.996406 -177.101105 15.551026 -76.585571 106.788818
54 106.028137 -11.221827 -5.996406 -177.101105 15.551026 -76.585571 106.788818
[spine02]
53 129.756927 0.001550 0.000119 0.470944 -4.032484 -14.526973 129.756927
54 129.756927 0.001550 0.000119 0.465954 -4.033087 -14.454957 129.756927
[spine03]
53 78.613571 0.081730 -4.898895 1.964050 3.797664 17.475477 78.766106
54 78.613564 0.081732 -4.898893 1.961027 3.799071 17.431589 78.766098
[pelvis]
53 169.435242 0.051022 0.000000 0.016376 -0.190531 -8.830269 169.435257
54 169.435242 0.051022 0.000000 0.017085 -0.190467 -9.256863 169.435257
[null_rope03_connect]
53 -1.257226 -2.466202 137.391083 52.865509 -20.181440 48.788727 137.418976
54 -1.257226 -2.466202 137.391083 51.378319 -20.216511 45.108849 137.418976
[null_rope04_connect]
53 -1.259640 -2.480268 -137.844437 52.865509 -20.181440 48.788727 137.872513
54 -1.259640 -2.480268 -137.844437 51.378319 -20.216511 45.108849 137.872513
[Rope3_Seg01]
53 -0.000032 0.000000 -0.000096 72.416138 -57.155888 -129.616470 0.000101
54 -0.000032 0.000000 -0.000097 53.014713 -53.449829 -113.206215 0.000103
[Rope3_Seg02]
53 139.999924 -0.000119 0.000060 0.004681 5.723586 7.593726 139.999924
54 139.999924 -0.000119 0.000060 -0.423545 6.316899 6.763271 139.999924
[Rope3_Seg03]
53 139.999924 -0.000119 0.000119 0.439690 7.336029 10.143117 139.999924
54 139.999924 -0.000119 0.000119 -0.015663 6.752559 7.606270 139.999924
[Rope3_Seg04]
53 139.999924 0.000119 0.000000 1.039760 7.504519 13.333491 139.999924
54 139.999924 0.000119 0.000000 0.417096 4.758114 8.193556 139.999924
[Rope3_Seg05]
53 139.999924 -0.000238 0.000060 1.242320 10.249846 9.698421 139.999924
54 139.999924 -0.000238 0.000060 0.576315 7.826723 6.578456 139.999924
[Rope3_Seg06]
53 139.999893 -0.000119 -0.000060 2.862971 11.235909 4.962430 139.999893
54 139.999893 -0.000119 -0.000060 2.313673 12.283966 4.963559 139.999893
[Rope3_Seg07]
53 139.999771 0.000060 -0.000119 2.865745 8.032771 4.394553 139.999771
54 139.999771 0.000060 -0.000119 3.167467 10.117770 3.993083 139.999771
[Rope3_Seg08]
53 139.999985 -0.000060 0.000000 2.402604 5.143831 2.625292 139.999985
54 139.999985 -0.000060 0.000000 2.658391 6.281487 2.456497 139.999985
[Rope3_Seg09]
53 90.185997 -0.000179 -0.000060 89.793228 -1.359877 -0.847183 90.185997
54 90.185997 -0.000179 -0.000060 89.793228 -1.359877 -0.847183 90.185997
[R_rear_hand01]
53 103.366196 -6.073594 -10.757982 -177.714203 24.565960 -73.910950 104.101845
54 103.366196 -6.073594 -10.757982 -177.714203 24.565960 -73.910950 104.101845
[R_rear_hand02]
53 100.509819 12.039542 -7.992327 -12.874827 36.868492 72.167221 101.543350
54 100.509819 12.039542 -7.992327 -12.874834 36.868492 72.167213 101.543350
[R_rear_hand03]
53 101.539970 5.215704 5.435467 71.484581 -71.816643 21.513824 101.819031
54 101.539970 5.215704 5.435467 71.484581 -71.816628 21.513813 101.819031
[Rope4_Seg01]
53 -0.000002 -0.000779 -0.000153 -107.536942 21.406780 -127.276245 0.000794
54 -0.000003 -0.000793 -0.000153 -107.397171 23.452316 -123.601318 0.000808
[Rope4_Seg02]
53 139.999985 0.000060 0.000119 -3.159665 -1.831444 5.373288 139.999985
54 139.999985 0.000060 0.000119 -3.132961 0.280695 6.934644 139.999985
[Rope4_Seg03]
53 139.999924 0.000000 -0.000238 -5.895478 -3.762942 9.396528 139.999924
54 139.999924 0.000000 -0.000238 -6.592975 -0.166536 11.911987 139.999924
[Rope4_Seg04]
53 139.999985 0.000000 0.000119 -13.566448 -9.810760 20.426153 139.999985
54 139.999985 0.000000 0.000119 -17.002316 -2.645370 23.517487 139.999985
[Rope4_Seg05]
53 139.999802 -0.000060 -0.000119 -17.503080 -21.961342 28.454556 139.999802
54 139.999802 -0.000060 -0.000119 -25.146498 -12.102554 29.751106 139.999802
[Rope4_Seg06]
53 139.999924 0.000000 0.000060 -4.095036 -18.511780 12.659902 139.999924
54 139.999924 0.000000 0.000060 -5.542143 -8.891107 6.663971 139.999924
[Rope4_Seg07]
53 139.999802 0.000000 0.000000 0.079346 -10.456781 6.872099 139.999802
54 139.999802 0.000000 0.000000 -1.513830 -4.261813 2.018252 139.999802
[Rope4_Seg08]
53 139.999924 0.000000 0.000119 -0.866189 -5.060778 3.392052 139.999924
54 139.999924 0.000000 0.000119 -2.770990 -3.373084 2.058169 139.999924
[Rope4_Seg09]
53 90.185791 0.000060 0.000060 -135.617828 2.228885 0.850567 90.185791
54 90.185791 0.000060 0.000060 -135.617828 2.228885 0.850567 90.185791
[L_rear_hand01]
53 101.696655 -8.392275 -7.654577 -12.874829 -36.868488 107.832764 102.329041
54 101.696655 -8.392275 -7.654577 -12.874834 -36.868492 107.832779 102.329041
[L_rear_hand02]
53 102.726799 -1.568258 5.773216 71.484581 71.816628 158.486160 102.900848
54 102.726799 -1.568258 5.773216 71.484596 71.816643 158.486160 102.900848
[L_rear_hand03]
53 104.552910 9.721220 -10.420293 -177.714203 -24.565960 -106.089035 105.519653
54 104.552910 9.721220 -10.420293 -177.714203 -24.565960 -106.089035 105.519653
